<?xml version="1.0" standalone="no"?>
<!DOCTYPE svg PUBLIC "-//W3C//DTD SVG 1.1//EN" "http://www.w3.org/Graphics/SVG/1.1/DTD/svg11.dtd" >
<svg xmlns="http://www.w3.org/2000/svg">
<metadata>Generated by IcoMoon</metadata>
<defs>
<font id="icomoon" horiz-adv-x="1024">
<font-face units-per-em="1024" ascent="960" descent="-64" />
<missing-glyph horiz-adv-x="1024" />
<glyph unicode="&#x20;" horiz-adv-x="512" d="" />
<glyph unicode="&#xe900;" glyph-name="arrow-up" d="M53.632 187.264l456.96 453.248 457.28-453.552c6.352-6.304 14.672-9.44 22.976-9.44 8.32 0 16.64 3.136 22.976 9.44 12.688 12.592 12.688 32.992 0 45.584l-479.68 475.76c-3.2 3.2-7.904 6-12.112 7.6-12 4.512-25.552 1.712-34.656-7.296l-479.712-475.76c-12.688-12.592-12.688-32.992 0-45.584 12.704-12.576 33.264-12.576 45.968 0z" />
<glyph unicode="&#xe901;" glyph-name="add-new" d="M960 362.667h-362.667v-362.667c0-11.776-9.557-21.333-21.333-21.333h-170.667c-11.776 0-21.333 9.557-21.333 21.333v362.667h-362.667c-11.776 0-21.333 9.557-21.333 21.333v170.667c0 11.776 9.557 21.333 21.333 21.333h362.667v362.667c0 11.776 9.557 21.333 21.333 21.333h170.667c11.776 0 21.333-9.557 21.333-21.333v-362.667h362.667c11.776 0 21.333-9.557 21.333-21.333v-170.667c0-11.776-9.557-21.333-21.333-21.333z" />
<glyph unicode="&#xe902;" glyph-name="agreement" d="M797.205 80.747c7.573-1.152 15.147 0.555 21.184 5.077 6.229 4.437 10.304 11.051 11.456 18.624l6.805 44.693c1.344 8.896 6.805 16.704 14.976 20.8l40.405 20.203c6.997 3.499 12.053 9.237 14.357 16.491 2.347 7.339 1.579 15.147-1.728 21.952l-20.992 40.213c-4.075 7.957-4.075 17.408 0 25.429l20.971 40.213c3.307 6.805 4.075 14.571 1.728 21.973-2.304 7.168-7.36 12.992-14.357 16.491l-40.405 20.224c-8.171 4.053-13.611 11.861-14.976 20.757l-6.805 44.672c-1.131 7.595-5.227 14.187-11.456 18.645-6.037 4.459-13.611 6.421-21.184 5.077l-44.672-7.403c-8.939-1.579-17.877 1.365-24.277 7.787l-31.872 32.427c-5.227 5.227-12.437 8.363-20.181 8.363-7.381 0-14.763-3.115-20.203-8.363l-31.637-32.427c-6.443-6.421-15.339-9.365-24.299-7.787l-44.651 7.403c-7.616 1.131-15.189-0.811-21.397-5.269-6.037-4.267-10.304-11.029-11.285-18.645l-6.763-44.651c-1.365-8.939-7.019-16.512-14.976-20.587l-40.619-20.224c-6.549-3.499-11.819-9.493-14.144-16.704-2.347-7.168-1.771-14.933 1.707-21.76l20.8-40.405c4.267-7.829 4.267-17.493 0-25.259l-20.8-40.448c-3.477-6.741-4.053-14.592-1.707-21.717 2.325-7.253 7.403-13.227 14.144-16.704l40.619-20.203c7.957-4.075 13.611-11.691 14.976-20.587l6.763-44.693c0.981-7.573 5.269-14.357 11.285-18.624 6.208-4.736 13.781-6.443 21.397-5.269l44.651 7.381c8.939 1.493 17.856-1.344 24.299-7.787l31.637-32.277c5.44-5.589 12.629-8.491 20.203-8.491s14.976 2.901 20.181 8.491l31.872 32.277c6.4 6.443 15.339 9.28 24.277 7.787l44.693-7.168zM676.181 113.387c-94.997 0-172.331 77.312-172.331 172.309s77.333 172.331 172.331 172.331c95.189 0 172.309-77.333 172.309-172.331 0-95.019-77.12-172.309-172.309-172.309v0zM676.181 433.131c-81.216 0-147.264-66.069-147.264-147.243s66.069-147.221 147.264-147.221c81.387 0 147.435 66.048 147.435 147.221s-66.048 147.243-147.435 147.243v0zM933.013 48.512l-80.256 80.021-4.075-27.008c-1.92-12.437-8.725-23.872-19.029-31.275-10.133-7.36-22.741-10.496-35.541-8.533l-44.672 7.403c-3.712 0.192-6.037-0.811-7.573-2.603l-7.573-7.509 104.683-104.725c4.075-4.053 9.92-5.397 15.339-3.883 5.269 1.749 9.344 6.229 10.517 11.861l9.323 50.88 50.88 9.536c5.632 0.96 10.112 5.035 11.84 10.475 1.557 5.461 0.192 11.285-3.861 15.36v0zM604.501 69.312l-46.229-7.573c-12.843-1.941-25.472 1.173-35.563 8.725-10.091 7.211-17.045 18.645-19.029 31.232l-4.096 26.859-80-80.021c-4.075-4.075-5.419-9.899-3.883-15.36 1.749-5.44 6.229-9.344 11.84-10.475l50.923-9.536 9.493-50.88c1.003-5.632 5.077-10.112 10.496-11.861 5.248-1.536 11.285-0.171 15.168 3.883l104.683 104.725-7.573 7.723c-1.749 1.557-3.883 2.56-6.229 2.56v0zM561.237 782.208h-375.339c-13.589 0-24.448-10.901-24.448-24.469 0-13.632 10.88-24.469 24.448-24.469h375.317c13.589 0 24.469 10.859 24.469 24.469 0.021 13.568-10.88 24.469-24.448 24.469v0zM561.237 656.725h-375.339c-13.589 0-24.448-10.88-24.448-24.32 0-13.568 10.88-24.469 24.448-24.469h375.317c13.589 0 24.469 10.901 24.469 24.469 0.021 13.44-10.88 24.32-24.448 24.32v0zM442.176 533.035h-263.552c-9.536 0-17.173-10.901-17.173-24.469 0-13.632 7.616-24.469 17.173-24.469h263.552c9.536 0 17.195 10.859 17.195 24.469-0.021 13.568-7.659 24.469-17.195 24.469v0zM442.176 407.552h-263.552c-9.536 0-17.173-10.88-17.173-24.299 0-13.589 7.616-24.491 17.173-24.491h263.552c9.536 0 17.195 10.901 17.195 24.491-0.021 13.419-7.659 24.299-17.195 24.299v0zM410.368 145.835l-16.277 9.131c-4.096 2.539-7.872 5.44-11.456 8.875h-285.376c-9.536 0-17.28 8.789-17.28 19.669v694.869c0 10.688 7.723 19.584 17.28 19.584h609.408c9.408 0 17.28-8.896 17.28-19.584v-358.4c7.701-2.133 15.061-5.845 21.376-11.264 12.672-10.304 21.376-26.624 23.787-44.459l0.683 413.931c0 39.637-28.437 71.893-63.125 71.893h-609.408c-34.923 0-63.275-32.256-63.275-71.893v-694.827c0-39.637 28.373-71.915 63.275-71.915h282.965l30.144 34.389z" />
<glyph unicode="&#xe903;" glyph-name="announcement" d="M776.246 737.472c-2.206 8.923-9.594 14.918-18.379 14.918-3.475 0-6.986-0.971-10.148-2.809l-633.337-367.252c-9.257-5.366-14.301-17.25-11.737-27.643l34.588-139.954c2.572-10.388 12.57-18.553 23.26-18.989l58.57-2.397c0 0 7.611 0.201 10.407-7.775 8.521-24.289 17.577-48.492 35.479-67.933 26.633-28.929 62.938-45.753 102.228-47.375l178.354-7.364c2.065-0.085 4.109-0.128 6.158-0.128 64.863 0 123.774 40.482 139.485 100.211 2.838 10.79 12.412 10.528 12.412 10.528l188.41-7.712c0.305-0.012 0.605-0.019 0.906-0.019 6.158 0 11.754 2.635 15.354 7.23 3.62 4.623 4.838 10.744 3.344 16.795l-135.354 547.669zM548.027 123.383l-178.354 7.364c-23.134 0.956-44.508 10.86-60.19 27.895-6.332 6.877-11.204 14.691-15.18 22.858-5.075 10.434 8.209 8.429 8.209 8.429l320.059-13.102c0 0 10.199 1.184 4.233-10.083-14.594-27.561-45.14-44.734-78.777-43.361zM1022.952 170.887l-156.982 635.194c-3.949 15.984-18.197 27.147-34.648 27.147-2.879 0-5.77-0.354-8.584-1.048-9.26-2.288-17.076-8.046-22.004-16.212-4.93-8.168-6.383-17.761-4.092-27.021l156.982-635.197c3.952-15.984 18.2-27.144 34.648-27.144 2.879 0 5.77 0.354 8.584 1.048 19.112 4.722 30.82 24.118 26.096 43.232zM71.98 348.642c-4.039 16.347-18.611 27.764-35.435 27.764-2.947 0-5.903-0.361-8.78-1.073-19.551-4.833-31.527-24.667-26.692-44.218l34.559-139.838c4.039-16.347 18.611-27.764 35.435-27.764 2.949 0 5.903 0.361 8.78 1.073 9.47 2.339 17.463 8.228 22.505 16.58s6.528 18.166 4.187 27.638l-34.559 139.838z" />
<glyph unicode="&#xe904;" glyph-name="arrow-down" d="M962.878 685.346c-12.701 12.701-33.34 12.701-46.040 0l-404.837-405.631-405.631 405.631c-12.701 12.701-33.34 12.701-46.040 0s-12.701-33.34 0-46.040l427.857-427.857c6.35-6.35 14.288-9.526 23.020-9.526 7.938 0 16.67 3.175 23.020 9.526l427.857 427.857c13.495 12.701 13.495 33.34 0.794 46.040z" />
<glyph unicode="&#xe905;" glyph-name="arrowhead-down" d="M0 704l512-512 512 512z" />
<glyph unicode="&#xe906;" glyph-name="arrow-left" d="M311.568 448.027l462.455 462.455c11.374 11.374 11.374 29.614 0 40.988s-29.614 11.374-40.988 0l-483.056-483.056c-11.374-11.374-11.374-29.614 0-40.988l483.056-482.842c5.58-5.58 13.090-8.584 20.387-8.584s14.807 2.79 20.387 8.584c11.374 11.374 11.374 29.614 0 40.988l-462.24 462.455z" />
<glyph unicode="&#xe907;" glyph-name="arrow-right" d="M774.115 468.413l-483.056 483.056c-11.374 11.374-29.614 11.374-40.988 0s-11.374-29.614 0-40.988l462.455-462.455-462.455-462.455c-11.374-11.374-11.374-29.614 0-40.988 5.58-5.58 13.090-8.584 20.387-8.584s14.807 2.79 20.387 8.584l483.056 483.056c11.374 11.159 11.374 29.614 0.215 40.773z" />
<glyph unicode="&#xe908;" glyph-name="bell" d="M619.179 113.685c0-89.591-51.032-162.219-113.984-162.219s-113.984 72.628-113.984 162.219c0 89.591 51.032 162.219 113.984 162.219s113.984-72.628 113.984-162.219zM512.683 883.307c72-9.664 46.485-92.992 46.485-92.992 203.968-91.477 225.365-201.6 224.96-280.448-0.085-18.56-36.843-166.891 19.499-221.973 82.987-81.131 172.48-107.989 83.989-185.963-78.229-68.949-499.413-118.997-707.883-37.483-208.448 81.493-68.992 157.461 0 205.461s36.011 163.477 52.48 302.955c16.491 139.477 202.475 217.451 202.475 217.451-14.997 64.491 6.016 102.656 77.995 92.992zM502.933 166.421c-184.299 0-333.696-13.077-333.696-29.248s149.397-29.248 333.696-29.248 333.696 13.077 333.696 29.248-149.397 29.248-333.696 29.248zM580.181 818.091c0-45.149-36.6-81.749-81.749-81.749s-81.749 36.6-81.749 81.749c0 45.149 36.6 81.749 81.749 81.749s81.749-36.6 81.749-81.749z" />
<glyph unicode="&#xe909;" glyph-name="bus" d="M105.249 960v-879.724h813.528v879.724h-813.528zM362.985 915.194h298.031v-45.034h-298.031v45.034zM270.509 165.96c-39.053 0-70.681 31.628-70.681 70.681 0 39.003 31.628 70.681 70.681 70.681s70.656-31.678 70.656-70.681c0.051-39.053-31.602-70.681-70.656-70.681zM757.926 165.96c-39.003 0-70.656 31.628-70.656 70.681 0 39.003 31.653 70.681 70.656 70.681 39.079 0 70.706-31.678 70.706-70.681 0.025-39.053-31.602-70.681-70.706-70.681zM847.792 475.269h-671.583v352.265h671.609c-0.025 0-0.025-352.265-0.025-352.265zM161.991 70.798h146.633v-134.798h-146.633v134.798zM720.089 70.798h146.659v-134.798h-146.659v134.798z" />
<glyph unicode="&#xe90a;" d="M750.997 322.752c-100.075 0-181.525-81.429-181.525-181.504 0-100.096 81.429-181.504 181.525-181.504s181.504 81.408 181.504 181.504c0 100.075-81.408 181.504-181.504 181.504v0z" />
<glyph unicode="&#xe90b;" d="M685.781 363.669v28.309c0 61.099-39.275 115.243-97.323 134.251l-0.256 0.085-84.907 14.059c-7.232 2.219-14.933-1.621-17.536-8.747l-96.341-264.299c-5.525-15.253-27.115-15.253-32.661 0l-96.341 264.299c-2.091 5.76-7.531 9.365-13.333 9.365-1.365 0-89.088-14.677-89.088-14.677-58.517-19.499-97.621-73.749-97.621-135.104v-219.904c0-32.96 26.709-59.669 59.669-59.669h401.088c-1.237 9.707-1.941 19.563-1.941 29.589-0.021 105.173 70.421 194.197 166.592 222.443v0z" />
<glyph unicode="&#xe90c;" d="M408.64 513.813c-3.755 4.075-9.28 6.144-14.805 6.144h-41.472c-5.547 0-11.051-2.069-14.805-6.144-5.824-6.357-6.677-15.509-2.539-22.677l22.187-33.408-10.368-87.552 20.437-54.357c1.963-5.461 9.707-5.461 11.691 0l20.437 54.357-10.347 87.552 22.165 33.408c4.075 7.168 3.243 16.341-2.581 22.677v0z" />
<glyph unicode="&#xe90d;" d="M726.357 120.96h-68.416c-14.464 0-26.496 11.563-26.496 26.496 0 14.443 12.032 26.517 26.496 26.517h68.416v66.965c0 15.424 12.053 27.456 27.477 27.456 14.933 0 27.456-12.032 27.456-27.456v-66.965h68.416c14.464 0 26.517-12.053 26.517-26.517 0-14.933-12.032-26.496-26.517-26.496h-68.416v-66.987c0-15.424-12.523-27.456-27.456-27.456-15.424 0-27.477 12.032-27.477 27.456v66.987z" />
<glyph unicode="&#xe90e;" d="M259.392 665.237c5.931-38.165 35.264-86.677 83.797-103.744 19.776-6.891 41.6-7.083 61.355 0.192 47.765 17.259 78.059 65.579 84.011 103.744 6.293 0.576 14.741 9.579 23.936 41.6 12.523 43.925-0.747 50.453-11.861 49.301 2.112 6.144 3.84 12.075 4.821 18.027 19.008 113.707-37.035 117.739-37.035 117.739s-9.195 17.835-33.728 31.445c-16.341 9.771-39.147 17.259-69.248 14.571-9.771-0.384-18.987-2.304-27.605-5.163v0c-11.136-3.84-21.312-9.216-30.315-15.552-11.328-7.083-21.867-15.893-31.253-25.877-14.784-15.125-27.989-34.688-33.771-59.264-4.8-18.219-3.627-37.376 0.192-57.899v0c1.131-5.952 2.688-12.075 4.779-18.027-11.115 0.96-24.341-5.355-11.904-49.301 9.045-32.384 17.493-41.408 23.829-41.792z" />
<glyph unicode="&#xe90f;" d="M720.299 363.669v28.309c0 61.099-39.253 115.243-97.301 134.251l-0.277 0.085-84.885 14.059c-7.232 2.219-14.955-1.621-17.557-8.747l-96.341-264.299c-5.525-15.253-27.115-15.253-32.661 0l-96.341 264.299c-2.091 5.76-7.531 9.365-13.333 9.365-1.365 0-89.088-14.677-89.088-14.677-58.517-19.499-97.621-73.749-97.621-135.104v-219.904c0-32.96 26.709-59.669 59.669-59.669h401.067c-1.216 9.707-1.941 19.563-1.941 29.589 0.021 105.173 70.464 194.197 166.613 222.443v0z" />
<glyph unicode="&#xe910;" d="M443.157 513.813c-3.755 4.075-9.28 6.144-14.805 6.144h-41.472c-5.547 0-11.051-2.069-14.805-6.144-5.824-6.357-6.677-15.509-2.539-22.677l22.187-33.408-10.368-87.552 20.437-54.357c1.963-5.461 9.707-5.461 11.691 0l20.437 54.357-10.347 87.552 22.165 33.408c4.096 7.168 3.243 16.341-2.581 22.677v0z" />
<glyph unicode="&#xe911;" d="M934.123 5.653l-90.987 90.965c41.344 53.312 37.675 130.453-11.243 179.371-25.664 25.685-59.84 39.829-96.149 39.829s-70.485-14.144-96.149-39.829c-53.035-53.013-53.035-139.285 0-192.32 25.664-25.685 59.84-39.829 96.149-39.829 30.549 0 59.477 10.112 83.2 28.565l90.965-90.965c3.349-3.349 7.723-5.013 12.096-5.013s8.747 1.664 12.096 5.013c6.72 6.699 6.72 17.536 0.021 24.213zM655.723 99.819c-44.117 44.117-44.117 115.904 0 160.021 21.376 21.355 49.792 33.152 80.021 33.152s58.645-11.776 80.021-33.152c44.117-44.117 44.117-115.925 0-160.021-21.376-21.376-49.792-33.152-80.021-33.152s-58.645 11.776-80.021 33.152z" />
<glyph unicode="&#xe912;" d="M293.931 665.237c5.931-38.165 35.264-86.677 83.797-103.744 19.776-6.891 41.6-7.083 61.355 0.192 47.765 17.259 78.059 65.579 84.011 103.744 6.293 0.576 14.741 9.579 23.936 41.6 12.523 43.925-0.747 50.453-11.861 49.301 2.112 6.144 3.84 12.075 4.8 18.027 19.008 113.707-37.013 117.739-37.013 117.739s-9.195 17.835-33.728 31.445c-16.341 9.771-39.147 17.259-69.248 14.571-9.771-0.384-18.987-2.304-27.605-5.163v0c-11.136-3.84-21.312-9.216-30.315-15.552-11.328-7.104-21.867-15.915-31.253-25.899-14.784-15.125-27.989-34.688-33.771-59.264-4.8-18.219-3.627-37.376 0.192-57.899v0c1.131-5.952 2.688-12.075 4.779-18.027-11.115 0.96-24.341-5.355-11.904-49.301 9.024-32.363 17.472-41.387 23.829-41.771z" />
<glyph unicode="&#xe913;" glyph-name="calculator" d="M769.813 935.979h-529.024c-43.499 0-78.805-35.285-78.805-78.784v-813.056c0-43.499 35.285-78.784 78.805-78.784h529.024c43.52 0 78.805 35.285 78.805 78.784v813.056c0 43.477-35.285 78.784-78.805 78.784zM265.92 775.744c0 33.067 6.379 59.861 39.445 59.861h399.851c33.067 0 39.445-26.795 39.445-59.861v-61.803c0-33.045-6.379-59.84-39.445-59.84h-399.851c-33.067 0-39.445 26.773-39.445 59.84v61.803zM365.227 117.44c0-16.427-13.333-29.781-29.781-29.781h-47.936c-16.427 0-29.76 13.333-29.76 29.781v51.2c0 16.427 13.333 29.76 29.76 29.76h47.936c16.448 0 29.781-13.333 29.781-29.76v-51.2zM365.227 287.445c0-16.427-13.333-29.781-29.781-29.781h-47.936c-16.427 0-29.76 13.333-29.76 29.781v51.221c0 16.427 13.333 29.781 29.76 29.781h47.936c16.448 0 29.781-13.333 29.781-29.781v-51.221zM365.227 457.451c0-16.427-13.333-29.76-29.781-29.76h-47.936c-16.427 0-29.76 13.333-29.76 29.76v51.243c0 16.427 13.333 29.781 29.76 29.781h47.936c16.448 0 29.781-13.333 29.781-29.781 0-0.021 0-51.243 0-51.243zM554.944 117.44c0-16.427-13.333-29.781-29.76-29.781h-47.979c-16.448 0-29.76 13.333-29.76 29.781v51.2c0 16.427 13.333 29.76 29.76 29.76h47.979c16.427 0 29.76-13.333 29.76-29.76v-51.2zM554.944 287.445c0-16.427-13.333-29.781-29.76-29.781h-47.979c-16.448 0-29.76 13.333-29.76 29.781v51.221c0 16.427 13.333 29.781 29.76 29.781h47.979c16.427 0 29.76-13.333 29.76-29.781v-51.221zM554.944 457.451c0-16.427-13.333-29.76-29.76-29.76h-47.979c-16.448 0-29.76 13.333-29.76 29.76v51.243c0 16.427 13.333 29.781 29.76 29.781h47.979c16.427 0 29.76-13.333 29.76-29.781v-51.243zM745.344 117.44c0-16.427-13.333-29.781-29.76-29.781h-47.957c-16.427 0-29.76 13.333-29.76 29.781v51.2c0 16.427 13.333 29.76 29.76 29.76h47.957c16.427 0 29.76-13.333 29.76-29.76v-51.2zM745.344 287.445c0-16.427-13.333-29.781-29.76-29.781h-47.957c-16.427 0-29.76 13.333-29.76 29.781v51.221c0 16.427 13.333 29.781 29.76 29.781h47.957c16.427 0 29.76-13.333 29.76-29.781v-51.221zM745.344 457.451c0-16.427-13.333-29.76-29.76-29.76h-47.957c-16.427 0-29.76 13.333-29.76 29.76v51.243c0 16.427 13.333 29.781 29.76 29.781h47.957c16.427 0 29.76-13.333 29.76-29.781v-51.243z" />
<glyph unicode="&#xe914;" glyph-name="calendar-date" d="M1028.587-60.053h-1023.979v680.576h1023.979v-680.576zM271.211 514.069h-106.475v-106.453h106.475v106.453zM458.923 514.069h-106.475v-106.453h106.475v106.453zM651.285 514.069h-106.453v-106.453h106.453v106.453zM845.525 514.069h-106.453v-106.453h106.453v106.453zM271.211 331.371h-106.475v-106.453h106.475v106.453zM458.923 331.371h-106.475v-106.453h106.475v106.453zM651.285 331.371h-106.453v-106.453h106.453v106.453zM845.525 331.371h-106.453v-106.453h106.453v106.453zM271.211 144.256h-106.475v-106.453h106.475v106.453zM458.923 144.256h-106.475v-106.453h106.475v106.453zM651.285 144.256h-106.453v-106.453h106.453v106.453zM845.525 144.256h-106.453v-106.453h106.453v106.453zM8.149 641.323v208.384c0 0 83.093 61.611 189.141 39.851v-155.84h188.757v160.491h255.253v-162.283h194.176v162.283c0 0 127.253 24.363 188.544-59.008v-193.899h-1015.872zM693.483 942.997v-189.333h125.013v132.267c0 0-1.813 48.896-32.619 57.067h-92.395zM242.133 942.997v-189.333h125.013v132.267c0 0-1.813 48.896-32.619 57.067h-92.395z" />
<glyph unicode="&#xe915;" glyph-name="car" d="M984.789 492.907c-9.621 9.813-21.675 14.699-36.075 14.699h-12.053l-151.616 279.040c-8.043 14.677-20.053 22.037-36.117 22.037h-459.733c-17.685 0-30.528-7.339-38.549-22.037l-149.205-279.040h-14.464c-14.443 0-26.496-4.885-36.096-14.699-9.643-9.771-14.443-21.995-14.443-36.693v-249.685c0-14.677 4.8-26.923 14.443-36.715 9.6-9.771 21.675-14.699 36.096-14.699h48.149v-73.408c0-21.248 7.232-39.168 21.675-53.867 14.421-14.677 32.064-22.037 52.949-22.037h24.064c20.864 0 38.528 7.36 52.949 22.037s21.653 32.619 21.653 53.867v73.408h418.837v-73.408c0-21.248 7.232-39.168 21.653-53.867 14.464-14.677 32.107-22.037 52.971-22.037h24.021c20.907 0 38.571 7.36 52.992 22.037s21.675 32.619 21.675 53.867v73.408h48.149c14.421 0 26.453 4.907 36.075 14.699 9.664 9.771 14.464 22.037 14.464 36.715v249.685c0 14.699-4.8 26.923-14.464 36.693zM215.723 325.269c-12.032-12.245-26.432-18.347-43.285-18.347-16.875 0-31.275 6.123-43.328 18.347-12.011 12.224-18.091 26.923-18.091 44.053s6.059 31.851 18.091 44.053c12.053 12.224 26.453 18.347 43.328 18.347 16.853 0 31.253-6.123 43.285-18.347 12.075-12.224 18.091-26.923 18.091-44.053s-5.995-31.829-18.091-44.053zM221.76 507.627l101.099 203.157c6.443 14.677 18.432 22.016 36.096 22.016h320.149c16.064 0 27.264-7.339 33.707-22.016l101.056-203.157h-592.107zM906.56 325.269c-12.032-12.245-26.475-18.347-43.307-18.347-16.853 0-31.275 6.123-43.328 18.347-12.032 12.224-18.048 26.923-18.048 44.053s5.995 31.851 18.048 44.053c12.053 12.224 26.475 18.347 43.328 18.347 16.832 0 31.275-6.123 43.307-18.347 12.011-12.224 18.091-26.923 18.091-44.053s-6.059-31.829-18.091-44.053z" />
<glyph unicode="&#xe916;" glyph-name="chat" d="M1010.112 399.851c2.645-119.765-164.416-211.947-164.416-211.947l-22.485-119.104-76.437 89.856c0 0-33.472-3.179-50.773-3.179-173.483 0-314.112 109.397-314.112 244.352 0 134.976 140.629 244.373 314.112 244.373s311.125-109.419 314.112-244.352zM345.579 372.203c-21.568 119.936 89.067 272 256.405 296.021-56.149 66.453-152.683 110.379-262.549 110.379-173.483 0-314.112-109.397-314.112-244.373 0-157.355 154.261-210.389 154.261-210.389l15.488-103.424 82.325 74.219c0 0 40.789-4.779 62.016-4.779 6.080 0 32.661-0.256 38.677 0-15.765 25.963-27.499 54.571-32.512 82.347z" />
<glyph unicode="&#xe917;" glyph-name="check" d="M1018.944 917.611l-127.125 1.088c0 0-318.677-367.296-545.045-604.779l-245.547 227.093-85.077-86.187 323.904-463.957c0 0 651.712 924.608 678.891 926.741z" />
<glyph unicode="&#xe918;" glyph-name="close" d="M633.703 448l365.094 365.094c33.607 33.607 33.607 88.095 0 121.698-33.607 33.607-88.091 33.607-121.698 0l-365.099-365.099-365.099 365.104c-33.607 33.607-88.091 33.607-121.698 0-33.603-33.607-33.603-88.095 0-121.698l365.099-365.094-365.099-365.099c-33.603-33.607-33.603-88.095 0-121.698 33.607-33.607 88.091-33.607 121.698 0l365.099 365.099 365.099-365.099c33.603-33.607 88.091-33.607 121.698 0s33.607 88.091 0 121.698l-365.094 365.094z" />
<glyph unicode="&#xe919;" glyph-name="contact" d="M321.634 621.013l-236.448 236.569c30.519 30.519 60.978 61.099 91.558 91.679 14.137 14.137 36.951 14.38 51.148 0.425l184.207-184.389c14.076-14.076 14.076-37.254-0.182-51.452l-77.906-77.845c-4.611-4.672-8.798-9.647-12.378-14.987zM516.156 235.67c-38.71 33.31-75.843 68.683-111.883 104.663-35.98 36.223-71.232 73.234-104.602 112.126-27.303 31.551-32.643 77.238-18.384 115.706l-242.697 242.758c-56.488-58.065-49.268-202.045 12.62-328.551 26.575-54.728 61.038-104.117 96.654-151.079 35.555-46.598 74.569-90.647 115.645-132.027 41.198-41.319 85.005-80.515 131.724-116.070 46.962-35.737 96.472-69.957 150.836-96.472 126.688-61.827 270.729-68.623 328.733-12.074l-242.758 242.758c-38.468-14.258-84.216-8.98-115.888 18.263zM1013.382 164.014l-184.207 184.268c-14.137 13.955-37.315 13.955-51.452-0.182h-0.121l-40.47-40.409-37.315-37.497c-4.611-4.611-9.647-8.676-14.987-12.438l236.387-236.508c30.58 30.641 61.099 61.099 91.74 91.618 14.258 14.137 14.562 37.011 0.425 51.148z" />
<glyph unicode="&#xe91a;" glyph-name="cycle-race" d="M682.667 738.133c42.667 0 76.8 34.133 76.8 76.8s-34.133 76.8-76.8 76.8-76.8-34.133-76.8-76.8 34.133-76.8 76.8-76.8zM810.667 430.933c-119.467 0-213.333-93.867-213.333-213.333s93.867-213.333 213.333-213.333 213.333 93.865 213.333 213.333-93.867 213.333-213.333 213.333zM810.667 68.267c-81.067 0-149.333 68.268-149.333 149.333 0 81.068 68.267 149.333 149.333 149.333s149.333-68.265 149.333-149.333c0-81.065-68.267-149.333-149.333-149.333zM631.467 516.267h179.2v76.8h-136.533l-81.067 140.8c-12.8 21.333-34.133 34.133-64 34.133-21.333 0-38.4-8.533-51.2-21.333l-157.867-157.867c-12.8-12.8-21.333-29.867-21.333-51.2 0-25.6 12.8-51.2 34.133-64l145.067-85.333v-213.333h76.8v277.333l-93.867 72.533 98.133 98.133 72.533-106.667zM213.333 430.933c-119.467 0-213.333-93.867-213.333-213.333s93.867-213.333 213.333-213.333 213.333 93.865 213.333 213.333-93.867 213.333-213.333 213.333zM213.333 68.267c-81.067 0-149.333 68.268-149.333 149.333 0 81.068 68.267 149.333 149.333 149.333s149.333-68.265 149.333-149.333c0-81.065-68.267-149.333-149.333-149.333z" />
<glyph unicode="&#xe91b;" d="M905.6 911.509h-786.368c-39.339 0-71.36-32.171-71.36-71.701v-183.36c0-15.147 4.885-29.077 12.928-40.597h903.189c8.085 11.52 12.949 25.451 12.949 40.576v183.36c0.021 39.552-32 71.723-71.339 71.723zM210.475 678.080c-38.443 0-69.717 31.424-69.717 70.016 0 38.613 31.275 70.037 69.717 70.037 38.4 0 69.696-31.424 69.696-70.037 0-38.592-31.296-70.016-69.696-70.016z" />
<glyph unicode="&#xe91c;" d="M527.893 180.139c0 39.104 9.28 75.968 25.323 108.907h-492.395c-8.064-11.499-12.928-25.451-12.928-40.576v-183.36c0-39.573 32.021-71.744 71.36-71.744h493.077c-51.648 45.717-84.437 112.384-84.437 186.773z" />
<glyph unicode="&#xe91d;" d="M60.821 584.725c-8.064-11.541-12.928-25.451-12.928-40.597v-183.36c0-15.147 4.885-29.099 12.928-40.619h510.165c44.651 65.707 119.723 108.949 204.672 108.949 79.317 0 149.888-37.803 195.243-96.299 3.776 8.576 6.037 17.941 6.037 27.947v183.36c0 15.147-4.864 29.056-12.928 40.597h-903.189z" />
<glyph unicode="&#xe91e;" d="M869.141 64.384c5.461-0.832 10.88 0.405 15.168 3.627 4.48 3.179 7.424 7.915 8.213 13.333l4.885 32.043c0.981 6.357 4.885 11.989 10.752 14.912l28.907 14.485c5.013 2.496 8.64 6.613 10.325 11.819 1.664 5.269 1.131 10.859-1.28 15.744l-15.019 28.821c-2.944 5.696-2.944 12.48 0 18.24l15.019 28.821c2.389 4.885 2.944 10.453 1.28 15.744-1.685 5.163-5.312 9.323-10.325 11.819l-28.907 14.507c-5.845 2.923-9.771 8.491-10.752 14.869l-4.885 32.043c-0.789 5.461-3.733 10.176-8.213 13.355-4.288 3.2-9.707 4.608-15.168 3.648l-32.021-5.291c-6.4-1.131-12.821 0.96-17.408 5.589l-22.848 23.253c-3.691 3.733-8.896 5.973-14.485 5.973-5.227 0-10.603-2.24-14.485-5.973l-22.677-23.253c-4.608-4.608-11.008-6.72-17.408-5.589l-32 5.291c-5.461 0.832-10.901-0.576-15.36-3.755-4.309-3.072-7.381-7.915-8.064-13.376l-4.885-32c-0.981-6.4-5.035-11.84-10.752-14.763l-29.099-14.507c-4.693-2.496-8.448-6.805-10.155-11.968-1.685-5.141-1.259-10.709 1.237-15.595l14.912-28.949c3.072-5.611 3.072-12.544 0-18.112l-14.912-28.992c-2.475-4.864-2.923-10.475-1.237-15.573 1.685-5.205 5.291-9.472 10.155-11.968l29.099-14.485c5.717-2.923 9.771-8.384 10.752-14.741l4.885-32.043c0.683-5.419 3.755-10.283 8.064-13.333 4.459-3.413 9.899-4.608 15.36-3.755l32 5.291c6.421 1.067 12.821-0.96 17.408-5.568l22.677-23.147c3.883-3.989 9.067-6.080 14.485-6.080s10.795 2.091 14.485 6.080l22.848 23.147c4.608 4.608 11.029 6.656 17.408 5.568l32.021-5.205zM782.379 87.765c-68.075 0-123.541 55.424-123.541 123.541 0 68.096 55.467 123.541 123.541 123.541 68.245 0 123.52-55.445 123.52-123.541 0-68.117-55.275-123.541-123.52-123.541v0z" />
<glyph unicode="&#xe91f;" d="M782.379 316.971c-58.176 0-105.557-47.381-105.557-105.579s47.403-105.515 105.557-105.515c58.347 0 105.728 47.339 105.728 105.515 0 58.219-47.381 105.579-105.728 105.579v0z" />
<glyph unicode="&#xe920;" d="M966.507 41.259l-57.536 57.365-2.944-19.371c-1.344-8.896-6.229-17.109-13.611-22.421-7.275-5.269-16.32-7.531-25.472-6.144l-32.043 5.312c-2.667 0.149-4.309-0.576-5.419-1.835l-5.419-5.397 75.008-75.072c2.944-2.901 7.125-3.883 11.008-2.773 3.797 1.237 6.677 4.459 7.573 8.491l6.677 36.48 36.459 6.827c4.011 0.704 7.211 3.605 8.469 7.509 1.109 3.925 0.149 8.085-2.752 11.029v0z" />
<glyph unicode="&#xe921;" d="M730.987 56.171l-33.109-5.461c-9.259-1.387-18.261 0.875-25.472 6.272-7.253 5.163-12.245 13.376-13.675 22.4l-2.965 19.243-57.344-57.365c-2.944-2.944-3.883-7.104-2.773-11.008 1.216-3.904 4.459-6.677 8.469-7.509l36.501-6.827 6.805-36.48c0.725-4.032 3.648-7.253 7.552-8.491 3.733-1.088 8.064-0.128 10.88 2.773l75.008 75.072-5.44 5.547c-1.195 1.109-2.731 1.835-4.437 1.835v0z" />
<glyph unicode="&#xe922;" glyph-name="facebook" d="M1024 789.322c0 89.68-80.964 170.678-170.667 170.678h-682.667c-89.702 0-170.667-80.998-170.667-170.678v-682.644c0-89.68 80.964-170.678 170.678-170.678h341.322v386.844h-125.156v170.667h125.156v66.492c0 114.677 86.107 217.953 192 217.953h137.956v-170.667h-137.956c-15.098 0-32.711-18.33-32.711-45.784v-67.994h170.667v-170.667h-170.667v-386.844h182.044c89.702 0 170.667 80.998 170.667 170.678v682.644z" />
<glyph unicode="&#xe923;" glyph-name="filter-standard" d="M128 832h832v-128l-320-320v-448l-192 128v320l-320 320zM128 960h832v-64h-832v64z" />
<glyph unicode="&#xe924;" glyph-name="flame" d="M730.924 517.573c-182.216 239.753-140.77 442.427-140.77 442.427-642.39-544.184-353.758-817.889-330.955-840.547 54.523-54.169 97.827-88.695 98.361-183.451 40.575 40.575 174.639 130.651 49.391 329.909 0 0-111.865 156.192 90.495 302.781-6.576-333.193 247.576-291.547 93.987-631.166 0.002-0.002 470.747 144.198 139.491 580.048z" />
<glyph unicode="&#xe925;" glyph-name="google-plus" d="M589.218 308.004c-10.865 14.575-22.864 28.117-35.995 40.612-13.128 12.51-26.259 23.899-39.381 34.152-13.131 10.253-25.129 20.107-35.999 29.548-10.867 9.428-19.689 19.28-26.457 29.533s-10.154 20.713-10.154 31.378c0 14.775 4.72 28.619 14.154 41.543s20.922 25.431 34.456 37.54c13.536 12.107 27.069 25.332 40.616 39.691 13.527 14.366 25.011 33.333 34.454 56.928 9.425 23.588 14.146 50.561 14.146 80.917 0 36.102-8.003 70.772-24.002 103.997-15.999 33.232-38.56 59.083-67.689 77.542h83.068l83.075 48.617h-268.902c-38.148 0-76.511-4.108-115.062-12.329-57.016-12.717-105.016-41.745-143.992-87.071-38.969-45.334-58.458-96.718-58.458-154.152 0-60.719 21.851-111.181 65.536-151.378 43.687-40.196 96.097-60.303 157.224-60.303 12.307 0 26.664 1.030 43.075 3.076-0.821-3.278-2.248-7.688-4.304-13.225s-3.696-9.958-4.927-13.234c-1.229-3.278-2.257-7.274-3.071-11.997-0.823-4.72-1.231-9.544-1.231-14.463 0-27.078 13.118-57.643 39.381-91.692-31.177-0.834-61.939-3.599-92.304-8.32-30.356-4.72-62.146-12.105-95.38-22.157-33.229-10.046-62.974-24.614-89.224-43.689-26.257-19.084-45.946-41.741-59.074-68-15.18-30.361-22.774-58.048-22.774-83.077 0-27.483 6.158-52.406 18.461-74.77 12.303-22.349 28.095-40.612 47.379-54.759 19.28-14.161 41.54-26.043 66.769-35.697 25.226-9.635 50.252-16.508 75.069-20.61 24.821-4.102 49.332-6.151 73.539-6.151 109.939 0 196.098 26.865 258.449 80.604 57.436 50.054 86.152 107.902 86.152 173.544 0 23.397-3.384 45.228-10.156 65.543-6.77 20.327-15.585 37.749-26.466 52.311zM351.996 531.68c-20.922 0-40.816 5.335-59.691 16.006-18.875 10.669-34.874 24.515-48 41.54-13.122 17.023-24.61 36.202-34.458 57.538-9.844 21.33-17.122 42.659-21.845 63.997-4.72 21.327-7.078 41.637-7.078 60.922 0 39.381 10.462 73.227 31.387 101.535 20.918 28.309 50.459 42.463 88.612 42.463 27.078 0 51.589-8.404 73.537-25.226s39.178-38.152 51.694-63.997c12.505-25.845 22.151-52.606 28.919-80.303 6.768-27.69 10.154-53.848 10.154-78.462 0-41.030-8.921-73.966-26.768-98.787-17.851-24.815-46.666-37.225-86.463-37.225zM522.141 69.566c-11.273-19.288-26.552-34.357-45.838-45.222-19.282-10.88-39.894-18.877-61.844-24.011-21.948-5.141-45.024-7.699-69.231-7.699-26.257 0-52.311 3.084-78.149 9.234-25.843 6.145-50.563 15.491-74.151 28-23.588 12.501-42.666 29.74-57.227 51.69-14.564 21.95-21.845 46.866-21.845 74.77 0 24.612 5.535 46.558 16.614 65.847 11.083 19.28 25.237 34.667 42.465 46.142 17.23 11.492 37.329 20.935 60.305 28.302 22.976 7.399 45.127 12.518 66.457 15.387 21.327 2.877 43.075 4.3 65.226 4.3 13.542 0 23.802-0.412 30.772-1.222 2.464-1.653 8.714-5.947 18.769-12.924s16.821-11.699 20.31-14.161c3.481-2.451 9.844-7.169 19.075-14.146 9.227-6.977 15.792-12.202 19.689-15.689 3.886-3.487 9.529-8.718 16.918-15.689 7.38-6.977 12.82-13.025 16.308-18.153 3.481-5.125 7.794-11.38 12.924-18.756 5.13-7.399 8.714-14.473 10.773-21.241 2.043-6.772 3.996-14.154 5.835-22.151 1.843-8.018 2.765-16.314 2.765-24.938 0.011-25.836-5.632-48.401-16.918-67.672zM866.455 802.466v157.534h-78.777v-157.534h-157.538v-78.772h157.538v-157.534h78.777v157.534h157.521v78.772z" />
<glyph unicode="&#xe926;" glyph-name="gps" d="M84.936 415.454h71.442c15.082-171.46 152.409-307.994 323.076-323.076v-71.442c0-17.464 14.288-32.546 32.546-32.546 17.464 0 32.546 14.288 32.546 32.546v71.442c171.46 15.082 307.994 152.409 323.076 323.076h71.442c17.464 0 32.546 14.288 32.546 32.546 0 17.464-14.288 32.546-32.546 32.546h-71.442c-15.082 171.46-152.409 307.994-323.076 323.076v71.442c0 17.464-14.288 32.546-32.546 32.546-17.464 0-32.546-14.288-32.546-32.546v-71.442c-171.46-15.082-307.994-152.409-323.076-323.076h-71.442c-18.257 0-32.546-14.288-32.546-32.546s15.082-32.546 32.546-32.546zM352.447 480.546h-130.977c15.082 135.74 123.039 243.696 257.984 257.984v-130.977c0-17.464 14.288-32.546 32.546-32.546 17.464 0 32.546 14.288 32.546 32.546v130.977c135.74-15.082 243.696-123.039 257.984-257.984h-130.977c-17.464 0-32.546-14.288-32.546-32.546 0-17.464 14.288-32.546 32.546-32.546h130.977c-15.082-135.74-123.039-243.696-257.984-257.984v130.977c0 17.464-14.288 32.546-32.546 32.546-17.464 0-32.546-14.288-32.546-32.546v-130.977c-135.74 15.082-243.696 123.039-257.984 257.984h130.977c17.464 0 32.546 14.288 32.546 32.546 0 17.464-15.082 32.546-32.546 32.546z" />
<glyph unicode="&#xe927;" glyph-name="help" d="M363.2 607.488c8.768 55.851 27.115 97.173 54.549 122.816 27.477 25.707 60.949 38.208 102.336 38.208 42.837 0 77.952-13.867 107.371-42.389 29.312-28.416 43.563-60.331 43.563-97.557 0-20.011-4.885-38.699-14.528-55.552-10.069-17.579-32.811-42.091-67.648-72.832-36.331-32.043-61.973-56.939-76.288-74.005-19.712-23.765-34.24-47.765-43.115-71.211-12.096-31.040-18.24-68.203-18.24-110.507 0-7.125 0.213-17.771 0.576-31.573l0.384-12.416h124.992l0.256 12.544c0.747 40.405 3.499 69.717 8.235 87.125 4.565 16.896 11.691 32.043 21.12 44.971 9.856 13.483 31.595 35.179 64.661 64.469 52.096 46.123 86.272 84.501 104.491 117.333 18.347 33.003 27.648 69.525 27.648 108.587 0 67.435-26.304 125.696-78.208 173.12-51.541 47.104-121.216 71.019-206.997 71.019-81.131 0-147.52-22.293-197.333-66.261s-80.128-107.776-90.133-189.653l-1.536-12.736 131.968-15.659 1.877 12.16zM456.192 130.091h122.581v-122.56h-122.581v122.56z" />
<glyph unicode="&#xe928;" glyph-name="home" d="M512.001 690.953l-365.205-301.073c0-0.425-0.107-1.050-0.32-1.902-0.209-0.845-0.32-1.459-0.32-1.895v-304.868c0-11.008 4.024-20.547 12.071-28.58 8.044-8.038 17.57-12.082 28.58-12.082h243.888v243.902h162.615v-243.911h243.886c11.008 0 20.547 4.036 28.58 12.091 8.047 8.024 12.084 17.57 12.084 28.58v304.868c0 1.691-0.231 2.968-0.641 3.797l-365.219 301.073zM1016.937 458.479l-139.090 115.597v259.143c0 5.924-1.904 10.796-5.726 14.609-3.791 3.809-8.663 5.713-14.6 5.713h-121.946c-5.931 0-10.801-1.904-14.616-5.713-3.806-3.813-5.708-8.687-5.708-14.609v-123.853l-154.974 129.575c-13.535 11.010-29.628 16.514-48.262 16.514-18.631 0-34.722-5.504-48.27-16.514l-456.687-380.462c-4.234-3.381-6.554-7.933-6.985-13.65-0.429-5.713 1.050-10.703 4.443-14.934l39.379-47.002c3.393-3.809 7.833-6.138 13.339-6.99 5.083-0.427 10.167 1.059 15.25 4.445l439.52 366.493 439.524-366.491c3.395-2.954 7.833-4.429 13.339-4.429h1.909c5.497 0.836 9.929 3.181 13.339 6.981l39.383 46.996c3.386 4.24 4.87 9.221 4.429 14.941-0.434 5.702-2.763 10.253-6.988 13.642z" />
<glyph unicode="&#xe929;" d="M294.293 207.723c0-72.707-58.941-131.648-131.648-131.648s-131.648 58.941-131.648 131.648c0 72.707 58.941 131.648 131.648 131.648s131.648-58.941 131.648-131.648z" />
<glyph unicode="&#xe92a;" d="M60.075 754.539v-393.429c27.883 21.632 64.299 35.051 109.419 35.051 168.192 0 216.512-185.6 145.216-292.565h692.629v650.944h-947.264z" />
<glyph unicode="&#xe92b;" d="M143.296 190.144h-46.528c-9.813 0-18.005 7.872-18.005 18.027 0 9.813 8.192 18.027 18.005 18.027h46.528v45.547c0 10.475 8.192 18.667 18.667 18.667 10.155 0 18.667-8.192 18.667-18.667v-45.547h46.528c9.835 0 18.027-8.192 18.027-18.027 0-10.155-8.192-18.027-18.027-18.027h-46.507v-45.547c0-10.496-8.512-18.667-18.667-18.667-10.475 0-18.667 8.192-18.667 18.667v45.547z" />
<glyph unicode="&#xe92c;" d="M702.699 492.288c3.371-21.611 19.968-49.067 47.445-58.752 11.2-3.904 23.552-4.011 34.752 0.107 27.051 9.771 44.203 37.141 47.573 58.752 3.563 0.32 8.363 5.44 13.547 23.552 7.104 24.875-0.427 28.565-6.72 27.925 1.216 3.477 2.176 6.848 2.731 10.219 10.752 64.405-20.971 66.688-20.971 66.688s-5.205 10.091-19.093 17.792c-9.259 5.525-22.187 9.771-39.211 8.256-5.547-0.235-10.752-1.323-15.637-2.944v0c-6.315-2.176-12.053-5.227-17.173-8.811-6.4-4.011-12.395-9.003-17.685-14.677-8.384-8.576-15.872-19.648-19.136-33.557-2.709-10.325-2.048-21.184 0.128-32.789v0c0.64-3.371 1.515-6.848 2.709-10.219-6.293 0.533-13.781-3.051-6.741-27.925 5.12-18.283 9.899-23.381 13.483-23.616z" />
<glyph unicode="&#xe92d;" d="M944.171 321.515v16.021c0 34.603-22.229 65.259-55.104 76.011l-0.149 0.043-48.085 7.979c-4.096 1.259-8.448-0.896-9.941-4.949l-54.549-149.675c-3.136-8.64-15.36-8.64-18.496 0l-54.549 149.675c-1.195 3.264-4.267 5.291-7.552 5.291-0.789 0-50.453-8.299-50.453-8.299-33.152-11.051-55.275-41.771-55.275-76.501v-124.544c0-18.667 15.125-33.792 33.792-33.792h258.453c12.672-0.107 31.317 1.472 31.317 1.472s29.077-0.256 31.317 37.76c1.6 27.456-0.725 66.859-0.725 103.509v0z" />
<glyph unicode="&#xe92e;" d="M787.2 406.549c-2.112 2.304-5.227 3.477-8.384 3.477h-23.488c-3.157 0-6.251-1.173-8.405-3.477-3.307-3.584-3.776-8.789-1.429-12.843l12.565-18.923-5.888-49.579 11.584-30.784c1.109-3.115 5.483-3.115 6.613 0l11.584 30.784-5.867 49.579 12.544 18.923c2.368 4.053 1.899 9.259-1.429 12.843v0z" />
<glyph unicode="&#xe92f;" d="M490.752 636.544h-318.4c-11.541 0-20.757-12.907-20.757-28.992 0-16.149 9.237-29.013 20.757-29.013h318.4c11.52 0 20.757 12.864 20.757 29.013 0 16.064-9.237 28.992-20.757 28.992v0z" />
<glyph unicode="&#xe930;" d="M490.752 505.749h-318.4c-11.541 0-20.757-12.885-20.757-28.821 0-16.085 9.237-29.013 20.757-29.013h318.4c11.52 0 20.757 12.928 20.757 29.013 0 15.915-9.237 28.821-20.757 28.821v0z" />
<glyph unicode="&#xe932;" d="M20.693 66.261h993.344v682.645h-993.344v-412.544z" />
<glyph unicode="&#xe933;" d="M694.613 473.92c3.52-22.656 20.928-51.456 49.749-61.611 11.733-4.075 24.725-4.181 36.437 0.107 28.373 10.261 46.357 38.955 49.877 61.611 3.733 0.341 8.768 5.696 14.229 24.704 7.445 26.069-0.448 29.952-7.061 29.269 1.259 3.648 2.283 7.168 2.859 10.709 11.285 67.541-21.995 69.931-21.995 69.931s-5.461 10.581-20.032 18.667c-9.707 5.803-23.253 10.24-41.131 8.661-5.803-0.235-11.264-1.365-16.384-3.093v0c-6.635-2.261-12.651-5.461-18.005-9.237-6.72-4.203-12.992-9.429-18.56-15.381-8.789-8.981-16.64-20.587-20.053-35.179-2.837-10.816-2.133-22.208 0.128-34.389v0c0.683-3.541 1.6-7.189 2.859-10.709-6.635 0.576-14.464-3.2-7.083-29.269 5.355-19.221 10.368-24.555 14.165-24.789z" />
<glyph unicode="&#xe934;" d="M947.819 294.805v16.832c0 36.267-23.317 68.416-57.792 79.701l-0.149 0.043-50.432 8.384c-4.288 1.323-8.875-0.96-10.411-5.184l-57.216-156.949c-3.285-9.067-16.107-9.067-19.413 0l-57.216 156.949c-1.237 3.413-4.459 5.568-7.915 5.568-0.832 0-52.907-8.704-52.907-8.704-34.752-11.584-57.963-43.819-57.963-80.256v-130.581c0-19.584 15.872-35.456 35.435-35.456h271.040c13.291-0.107 32.853 1.557 32.853 1.557s30.485-0.277 32.853 39.595c1.664 28.757-0.768 70.080-0.768 108.501v0z" />
<glyph unicode="&#xe935;" d="M783.211 383.979c-2.219 2.453-5.483 3.669-8.789 3.669h-24.619c-3.307 0-6.571-1.216-8.811-3.669-3.456-3.755-3.947-9.216-1.493-13.461l13.163-19.84-6.165-52.011 12.139-32.277c1.173-3.264 5.76-3.264 6.933 0l12.139 32.277-6.165 52.011 13.163 19.84c2.496 4.245 1.984 9.707-1.493 13.461v0z" />
<glyph unicode="&#xe936;" d="M472.341 542.123h-333.909c-12.096 0-21.76-13.547-21.76-30.421 0-16.917 9.664-30.421 21.76-30.421h333.909c12.075 0 21.76 13.483 21.76 30.421 0 16.853-9.685 30.421-21.76 30.421v0z" />
<glyph unicode="&#xe937;" d="M472.341 404.075h-333.909c-12.096 0-21.76-13.525-21.76-30.229 0-16.853 9.664-30.421 21.76-30.421h333.909c12.075 0 21.76 13.568 21.76 30.421 0 16.725-9.685 30.229-21.76 30.229v0z" />
<glyph unicode="&#xe939;" d="M282.155 210.411c0-71.765-58.177-129.941-129.941-129.941s-129.941 58.177-129.941 129.941c0 71.765 58.177 129.941 129.941 129.941s129.941-58.177 129.941-129.941z" />
<glyph unicode="&#xe93a;" d="M50.965 750.165v-388.352c27.52 21.333 63.467 34.581 108.011 34.581 166.016 0 213.717-183.211 143.339-288.789h683.669v642.56h-935.019z" />
<glyph unicode="&#xe93b;" d="M685.291 491.307c3.307-21.333 19.712-48.448 46.805-57.984 11.051-3.861 23.296-3.947 34.283 0.107 26.709 9.664 43.648 36.672 46.997 57.984 3.499 0.32 8.235 5.355 13.355 23.275 7.019 24.533-0.405 28.181-6.635 27.541 1.195 3.435 2.155 6.763 2.688 10.091 10.603 63.552-20.693 65.813-20.693 65.813s-5.163 9.963-18.859 17.579c-9.152 5.461-21.888 9.643-38.699 8.149-5.483-0.235-10.624-1.301-15.445-2.901v0c-6.251-2.155-11.904-5.163-16.939-8.683-6.315-3.968-12.203-8.896-17.472-14.485-8.256-8.448-15.637-19.392-18.88-33.109-2.667-10.197-2.027-20.885 0.107-32.363v0c0.64-3.328 1.515-6.763 2.688-10.091-6.208 0.533-13.611-3.008-6.677-27.541 5.099-18.133 9.835-23.168 13.376-23.381z" />
<glyph unicode="&#xe93c;" d="M923.627 322.731v15.829c0 34.133-21.952 64.405-54.4 75.029l-0.149 0.043-47.467 7.872c-4.032 1.237-8.363-0.896-9.813-4.885l-53.824-147.733c-3.115-8.533-15.189-8.533-18.283 0l-53.845 147.733c-1.173 3.221-4.181 5.227-7.467 5.227-0.768 0-49.792-8.192-49.792-8.192-32.725-10.901-54.571-41.237-54.571-75.52v-122.923c0-18.432 14.912-33.365 33.344-33.365h255.147c12.501-0.107 30.912 1.451 30.912 1.451s28.693-0.235 30.912 37.269c1.6 27.093-0.704 65.984-0.704 102.165v0z" />
<glyph unicode="&#xe93d;" d="M768.683 406.656c-2.091 2.283-5.163 3.435-8.277 3.435h-23.168c-3.115 0-6.187-1.152-8.277-3.435-3.264-3.563-3.733-8.683-1.408-12.672l12.373-18.667-5.781-48.939 11.413-30.379c1.109-3.072 5.44-3.072 6.549 0l11.413 30.379-5.781 48.939 12.373 18.667c2.325 4.011 1.856 9.131-1.429 12.672v0z" />
<glyph unicode="&#xe93e;" d="M476.075 633.685h-314.304c-11.392 0-20.48-12.757-20.48-28.629 0-15.936 9.088-28.629 20.48-28.629h314.283c11.371 0 20.48 12.693 20.48 28.629 0.021 15.872-9.088 28.629-20.459 28.629v0z" />
<glyph unicode="&#xe93f;" d="M476.075 504.576h-314.304c-11.392 0-20.48-12.736-20.48-28.437 0-15.872 9.088-28.629 20.48-28.629h314.283c11.371 0 20.48 12.757 20.48 28.629 0.021 15.701-9.088 28.437-20.459 28.437v0z" />
<glyph unicode="&#xe941;" d="M211.2 267.904l21.504-21.525-100.693-100.693-62.080 62.080 21.525 21.525 40.555-40.533 79.189 79.147z" />
<glyph unicode="&#xe942;" glyph-name="important" d="M516.885 912.448l-495.019-497.749h495.019zM597.099 914.005v-558.912h-557.547l364.459-378.048 331.819 327.744v484.117zM944.683 238.571c0-37.056-35.413-67.093-79.104-67.093v0c-43.691 0-79.125 30.037-79.125 67.093v595.797c0 37.056 35.435 67.115 79.125 67.115v0c43.691 0 79.104-30.037 79.104-67.115v-595.797zM962.965 54.635c0-51.346-41.624-92.971-92.971-92.971s-92.971 41.624-92.971 92.971c0 51.346 41.624 92.971 92.971 92.971s92.971-41.624 92.971-92.971z" />
<glyph unicode="&#xe943;" glyph-name="link" d="M228.302 22.444c-26.12-26.12-68.441-26.12-94.561 0l-47.28 47.28c-26.119 26.12-26.119 68.441 0 94.561l317.868 317.87c-44.537 11.771-93.833 0.761-128.748-34.155l-236.402-236.402c-52.239-52.241-52.239-136.915 0-189.12l47.28-47.281c52.241-52.239 136.915-52.239 189.122 0l236.402 236.402c34.915 34.915 45.924 84.212 34.153 128.748l-317.835-317.902zM984.82 873.524l-47.281 47.28c-52.239 52.239-136.913 52.239-189.12 0l-236.402-236.402c-34.915-34.915-45.924-84.212-34.155-128.714l317.87 317.868c26.119 26.12 68.441 26.12 94.561 0l47.281-47.28c26.119-26.12 26.119-68.441 0-94.561l-317.872-317.868c44.537-11.771 93.833-0.761 128.716 34.153l236.402 236.402c52.241 52.207 52.241 136.915 0 189.122zM618.381 553.835c-13.061 13.059-34.22 13.059-47.281 0l-165.48-165.481c-13.061-13.061-13.061-34.22 0-47.281 13.059-13.061 34.22-13.061 47.28 0l165.481 165.481c13.061 13.061 13.061 34.255 0 47.281z" />
<glyph unicode="&#xe944;" glyph-name="location-pointer" d="M512 960c-176.755 0-320-143.283-320-320 0-305.536 320-704 320-704s320 398.464 320 704c0 176.717-143.27 320-320 320zM512 463.36c-95.45 0-172.8 77.363-172.8 172.8s77.35 172.8 172.8 172.8c95.424 0 172.8-77.363 172.8-172.8s-77.376-172.8-172.8-172.8z" />
<glyph unicode="&#xe945;" glyph-name="lock" d="M207.143 652.423v-106.919h-7.114c-44.776 0-81.183-36.407-81.183-81.183v-447.137c0-44.776 36.407-81.183 81.183-81.183h623.941c44.776 0 81.183 36.407 81.183 81.183v447.346c0 44.776-36.407 81.183-81.183 81.183h-2.092v106.919c0 169.481-137.886 307.367-307.367 307.367-169.481-0.209-307.367-138.096-307.367-307.577zM560.124 220.979c-6.277-4.603-7.951-8.997-7.951-16.32 0.209-32.85 0.209-65.491 0.209-98.341v0c0.628-13.6-6.277-26.991-18.413-33.059-28.665-14.647-57.331 5.859-57.331 33.059v0.209c0 32.85 0 65.7 0.209 98.55 0 6.696-1.465 11.089-7.323 15.483-29.711 21.97-39.546 59.423-24.69 92.273 14.437 32.013 49.798 50.844 83.067 44.149 37.035-7.532 62.771-37.244 63.189-74.279 0-25.736-10.253-46.66-30.967-61.725zM341.682 652.423c0 95.412 77.626 172.829 172.829 172.829 95.412 0 172.829-77.626 172.829-172.829v-106.919h-345.658v106.919z" />
<glyph unicode="&#xe946;" glyph-name="lock-open" d="M497.906 824.681c96.051 8.979 178.112-60.972 188.552-152.429 1.253-11.276 10.858-19.628 22.133-19.628h90.204c13.155 0 23.386 11.276 22.342 24.222-12.737 162.034-151.802 289.197-318.43 282.933-166.419-6.264-295.67-148.253-295.67-314.672v-99.392h-7.099c-44.893 0-81.226-36.332-81.226-81.226v-447.264c0-44.893 36.332-81.226 81.226-81.226h624.123c44.893 0 81.226 36.332 81.226 81.226v447.264c0 44.893-36.332 81.226-81.226 81.226h-482.343v101.898c0 89.787 66.609 168.716 156.187 177.068zM444.869 312.687c14.408 32.156 49.696 50.74 83.105 44.058 36.959-7.517 62.851-37.376 63.060-74.335 0.209-25.474-10.232-46.564-30.903-61.598-6.264-4.594-7.935-9.187-7.935-16.287 0.209-32.783 0.209-65.565 0.209-98.348v0c0.626-13.572-6.264-26.936-18.375-33.2-28.815-14.616-57.422 5.847-57.422 32.991v0.209c0 32.991 0 65.774 0.209 98.766 0 6.682-1.462 11.067-7.308 15.452-29.859 21.925-39.464 59.301-24.639 92.293z" />
<glyph unicode="&#xe947;" glyph-name="mail" d="M529.963 375.915c-13.355-11.115-29.76-11.797-43.051 0-157.099 139.669-314.24 279.232-471.403 418.923-0.811-1.216-1.216-2.901-1.984-4.181v-632.491h993.643v614.357c-159.104-132.203-318.144-264.448-477.205-396.608zM460.437 480.683c16.192-14.464 32.512-28.885 48.683-43.349 152.619 126.741 305.088 253.483 457.6 380.245-2.048 1.045-4.224 1.92-6.229 2.965h-882.517c75.605-67.221 151.253-134.443 226.859-201.643 51.925-46.059 103.765-92.139 155.605-138.219z" />
<glyph unicode="&#xe948;" glyph-name="mail-box.png" d="M477.248-30.912h77.888v284.053l-77.888-17.408zM690.816 766.741h-163.2l-18.133-250.24c0.128-1.408 0.704-24.235-13.355-38.912-7.211-7.531-17.109-11.499-28.651-11.499-6.443 0-28.309 0.896-39.147 12.48-4.224 4.544-6.272 10.133-5.867 16.192l18.091 272h-222.976c145.259-31.851 142.848-212.587 142.805-214.464v-331.136l4.544-2.027 443.413 126.464c0 30.016 0 149.867 0 276.288 0 134.912-112.747 144.853-117.525 144.853zM202.496 749.803c-10.133 1.579-19.584 2.261-28.48 2.24-3.221 0-6.293-0.192-9.344-0.427-3.499-0.213-6.955-0.576-10.261-1.088-20.096-3.136-36.011-11.2-47.211-24.448-28.715-33.92-19.691-89.835-19.584-90.389l0.107-292.821 253.163-107.925v317.568c0 0.32 0 1.28 0.021 2.112 0.021 7.957-0.576 38.827-10.837 74.24-14.528 50.261-48.469 108.821-127.573 120.939zM482.027 490.283c7.083 6.357 8.192 18.219 8 22.272l18.091 216 1.387 16.811 6.187 74.005 9.451-0.363c0.299 0 27.84-0.939 53.035 2.048 17.131 2.005 18.283 13.632 18.347 15.915 0.235 1.707 4.949 23.531 7.317 52.075 1.685 20.096-14.059 23.232-17.216 23.68l-110.229 28.757-15.061-196.096-1.301-16.832-18.133-236.16c3.605-4.096 13.077-6.805 25.557-6.805 6.272-0.021 11.029 1.515 14.571 4.693z" />
<glyph unicode="&#xe949;" glyph-name="maps" d="M766.059 667.712c-3.115 11.669-9.429 24.128-14.123 35.008-55.957 134.528-178.283 182.741-277.056 182.741-132.224 0-277.845-88.661-297.28-271.403v-37.355c0-1.536 0.533-15.552 1.301-22.549 10.901-87.083 79.616-179.669 130.944-266.752 55.211-93.291 112.512-185.088 169.28-276.843 35.008 59.883 69.888 120.533 104.085 178.837 9.323 17.131 20.139 34.24 29.461 50.581 6.229 10.88 18.112 21.76 23.531 31.872 55.211 101.077 144.085 202.965 144.085 303.296v41.216c0.021 10.88-13.461 49.003-14.229 51.349zM477.312 480.299c-38.869 0-81.408 19.413-102.4 73.088-3.136 8.533-2.88 25.664-2.88 27.243v24.107c0 68.416 58.091 99.52 108.629 99.52 62.229 0 110.336-49.771 110.336-112 0-62.208-51.477-111.957-113.685-111.957z" />
<glyph unicode="&#xe94a;" glyph-name="mark-as-favorite-star" d="M512 152.421l316.416-190.821-83.713 359.884 279.297 242.023-368.178 31.591-143.822 339.301-143.82-339.301-368.18-31.591 279.297-242.023-83.713-359.884z" />
<glyph unicode="&#xe94b;" glyph-name="message" d="M981.248 431.125c0-129.579 21.931-233.429-117.76-233.429h-701.525c-139.669 0-113.877 106.176-113.877 235.755v174.848c0 129.6-25.792 233.579 113.877 233.579h701.547c139.691 0 117.76-106.283 117.76-235.904v-174.848zM468.928 271.019l-117.333-317.76 513.344 361.771z" />
<glyph unicode="&#xe94c;" d="M1003.861 457.515c0-266.122-215.734-481.856-481.856-481.856s-481.856 215.734-481.856 481.856c0 266.122 215.734 481.856 481.856 481.856s481.856-215.734 481.856-481.856z" />
<glyph unicode="&#xe94d;" d="M639.147 130.56v-26.24h-227.84v26.24h152.747z" />
<glyph unicode="&#xe94e;" d="M564.053 154.88v-24.32h-87.893v24.32h24.32v-14.933h42.453v14.933z" />
<glyph unicode="&#xe94f;" d="M559.36 839.467c10.901-10.88 16.235-24.107 16.235-40.107s-5.355-29.227-16.235-40.107c-10.667-10.667-24.107-16.213-40.107-16.213-15.787 0-29.227 5.547-40.107 16.213-10.667 10.88-16 24.107-16 40.107s5.333 29.227 16 40.107c10.88 10.667 24.32 16.235 40.107 16.235 16-0.021 29.44-5.568 40.107-16.235z" />
<glyph unicode="&#xe950;" d="M500.48 154.88h42.453v-14.933h-42.453v14.933z" />
<glyph unicode="&#xe951;" d="M542.933 592.427v-437.547h-42.453v392.533h20.48v25.173h-20.48v19.84z" />
<glyph unicode="&#xe952;" d="M500.48 572.587h20.48v-25.173h-20.48v25.173z" />
<glyph unicode="&#xe953;" d="M403.84 572.587h96.64v-25.173h-96.64v25.173z" />
<glyph unicode="&#xe954;" d="M17.429 780.373h1000.981v-652.373h-1000.981v652.373z" />
<glyph unicode="&#xe955;" d="M178.731 652.288h744.683v-61.568h-744.683v61.568z" />
<glyph unicode="&#xe956;" d="M178.731 520.341h429.824v-61.568h-429.824v61.568z" />
<glyph unicode="&#xe957;" d="M178.731 381.568h744.683v-61.568h-744.683v61.568z" />
<glyph unicode="&#xe958;" glyph-name="out" d="M1024 476.444l-398.222 398.222v-227.556c-398.222-56.889-568.889-341.333-625.778-625.778 142.222 199.111 341.333 290.133 625.778 290.133v-233.244l398.222 398.222z" />
<glyph unicode="&#xe959;" glyph-name="pinterest" d="M955.377 705.002c-45.786 78.44-107.892 140.546-186.335 186.33-78.44 45.782-164.105 68.668-257.004 68.668-92.892 0-178.561-22.886-257.001-68.668-78.452-45.777-140.558-107.883-186.339-186.33-45.793-78.452-68.679-164.114-68.679-257.008 0-103.561 28.219-197.573 84.665-282.001 56.444-84.464 130.445-146.905 222.003-187.348-1.779 47.554 1.111 86.886 8.661 117.996l66.006 278.687c-11.115 21.784-16.67 48.873-16.67 81.333 0 37.77 9.548 69.326 28.663 94.666 19.115 25.336 42.445 38.001 70.003 38.001 22.216 0 39.325-7.332 51.33-21.996 12.007-14.671 17.992-33.114 17.992-55.341 0-13.768-2.566-30.552-7.68-50.33-5.109-19.78-11.771-42.669-19.993-68.672-8.222-25.994-14.116-46.786-17.667-62.328-6.218-27.106-1.111-50.328 15.334-69.674 16.444-19.33 38.23-29.009 65.343-29.009 47.554 0 86.55 26.442 117.004 79.327 30.445 52.901 45.66 117.125 45.66 192.677 0 58.232-18.779 105.569-56.343 142.003-37.56 36.448-89.891 54.681-157.008 54.681-75.098 0-135.883-24.114-182.328-72.336-46.447-48.229-69.669-105.901-69.669-173.008 0-40.005 11.334-73.567 33.999-100.67 7.554-8.887 10.001-18.442 7.332-28.672-0.89-2.669-2.664-9.333-5.333-19.993-2.657-10.66-4.444-17.564-5.326-20.668-3.552-14.223-12.002-18.667-25.336-13.329-34.218 14.209-60.224 38.884-77.996 73.996-17.779 35.113-26.671 75.787-26.671 121.999 0 29.779 4.78 59.556 14.337 89.331 9.548 29.786 24.444 58.559 44.661 86.34 20.229 27.787 44.451 52.345 72.675 73.669 28.212 21.331 62.55 38.44 102.996 51.33s83.997 19.334 130.669 19.334c63.122 0 119.778-13.999 169.994-41.999 50.232-28.002 88.558-64.219 115.007-108.668 26.449-44.451 39.666-92.009 39.666-142.676 0-66.664-11.554-126.662-34.657-180.002-23.108-53.331-55.778-95.22-98.010-125.658-42.225-30.454-90.22-45.676-144.016-45.676-27.103 0-52.437 6.337-76.002 18.996-23.549 12.672-39.776 27.664-48.661 45.004-20.002-78.657-32.005-125.557-36.007-140.665-8.444-31.542-25.775-67.995-52.002-109.326 47.559-14.223 96-21.319 145.335-21.319 92.892 0 178.564 22.886 257.004 68.675 78.447 45.772 140.553 107.878 186.325 186.318 45.782 78.456 68.668 164.126 68.668 257.011 0.023 92.885-22.83 178.559-68.595 256.999z" />
<glyph unicode="&#xe95a;" glyph-name="play-button" d="M955.316 703.958c-141.36 244.843-454.453 328.737-699.276 187.351-244.843-141.34-328.74-454.421-187.355-699.254 141.34-244.843 454.424-328.75 699.25-187.378 244.846 141.389 328.783 454.453 187.381 699.28zM716.756 93.372c-195.845-113.111-446.335-45.992-559.413 149.892-113.105 195.845-45.962 446.331 149.889 559.387 195.858 113.105 446.335 45.992 559.42-149.886 113.088-195.874 45.966-446.309-149.895-559.394zM696.283 468.808l-268.054 156.335c-24.427 14.261-44.13 2.859-43.993-25.396l1.373-310.309c0.124-28.248 20.068-39.748 44.567-25.598l266.003 153.577c24.473 14.124 24.525 37.13 0.104 51.391z" />
<glyph unicode="&#xe95b;" glyph-name="search-find" d="M944.363 56.96l-238.080 238.080c108.181 139.52 98.56 341.483-29.461 469.483-67.157 67.221-156.608 104.256-251.712 104.256-94.997 0-184.427-37.013-251.584-104.256-138.837-138.773-138.837-364.565 0-503.36 67.157-67.243 156.587-104.235 251.584-104.235 79.936 0 155.733 26.432 217.792 74.752l238.080-238.080c8.832-8.747 20.288-13.12 31.744-13.12s22.891 4.373 31.616 13.12c17.579 17.515 17.579 45.909 0.021 63.36zM226.133 313.792c-109.781 109.76-109.781 288.341 0 398.123 53.163 53.12 123.883 82.453 198.997 82.453 75.264 0 145.941-29.333 199.147-82.453 109.76-109.781 109.76-288.384 0-398.123-53.205-53.184-123.883-82.453-199.147-82.453-75.136 0-145.835 29.269-198.997 82.453z" />
<glyph unicode="&#xe95c;" glyph-name="twitter" d="M1024 765.477c-37.689-16.7-78.129-28.026-120.618-33.083 43.384 25.98 76.594 67.187 92.334 116.139-40.696-24.059-85.616-41.529-133.48-50.999-38.328 40.888-92.846 66.356-153.316 66.356-116.010 0-210.072-94.062-210.072-210.009 0-16.444 1.856-32.505 5.44-47.864-174.559 8.768-329.345 92.399-432.941 219.481-18.109-30.971-28.411-67.059-28.411-105.581 0-72.883 37.113-137.191 93.423-174.815-34.426 1.151-66.804 10.621-95.15 26.363v-2.624c0-101.741 72.435-186.652 168.48-205.978-17.597-4.735-36.153-7.359-55.35-7.359-13.565 0-26.683 1.344-39.544 3.904 26.746-83.505 104.301-144.228 196.188-145.893-71.859-56.31-162.466-89.776-260.879-89.776-16.956 0-33.658 1.024-50.102 2.88 92.975-59.702 203.354-94.511 321.988-94.511 386.423 0 597.648 320.069 597.648 597.648l-0.704 27.195c41.271 29.437 76.976 66.421 105.067 108.526z" />
<glyph unicode="&#xe95d;" glyph-name="upload" d="M512 155.429c-10.094 0-18.286 8.174-18.286 18.286v694.857c0 10.112 8.192 18.286 18.286 18.286s18.286-8.174 18.286-18.286v-694.857c0-10.112-8.192-18.286-18.286-18.286zM292.571 630.857c-4.681 0-9.362 1.792-12.928 5.358-7.15 7.15-7.15 18.706 0 25.856l219.429 219.429c7.15 7.15 18.706 7.15 25.856 0s7.15-18.706 0-25.856l-219.429-219.429c-3.566-3.566-8.247-5.358-12.928-5.358zM731.429 630.857c-4.681 0-9.362 1.792-12.928 5.358l-219.429 219.429c-7.15 7.15-7.15 18.706 0 25.856s18.706 7.15 25.856 0l219.429-219.429c7.15-7.15 7.15-18.706 0-25.856-3.566-3.566-8.247-5.358-12.928-5.358zM1024 9.143h-1024v237.714c0 10.112 8.192 18.286 18.286 18.286s18.286-8.174 18.286-18.286v-201.143h950.857v201.143c0 10.112 8.192 18.286 18.286 18.286s18.286-8.174 18.286-18.286v-237.714z" />
<glyph unicode="&#xe95e;" glyph-name="user-profile" d="M769.707 659.029c0-145.355-117.834-263.189-263.189-263.189s-263.189 117.834-263.189 263.189c0 145.355 117.834 263.189 263.189 263.189s263.189-117.834 263.189-263.189zM58.069-29.184v201.877c0 0 19.392 207.573 227.051 204.693 0 0 22.677 2.091 45.184-11.499 27.84-16.768 60.053-49.984 104.427-50.56 61.013-0.832 174.763-29.696 242.923 24.171 0 0 106.603 94.549 214.336-4.395 122.411-112.405 94.549-192.363 93.44-235.2-1.109-42.88-4.395-129.067-4.395-129.067h-922.965z" />
<glyph unicode="&#xe95f;" glyph-name="verify" d="M564.757 956.203h-355.264c-69.995 0-126.635-56.085-126.635-125.419v-544.235c13.845 3.968 28.949 6.272 45.589 6.272 4.885 0 9.579-0.341 14.229-0.683v538.453c0 36.565 29.909 66.197 66.816 66.197h313.621v-96.021c0-69.099 24.896-209.984 208.981-209.984h105.835v-523.648c0-36.587-30.123-66.176-66.816-66.176h-493.504c0.939-19.968-1.451-40.064-7.168-59.072h500.693c69.973 0 126.635 56.085 126.635 125.419v561.323l-333.013 327.573zM421.461 596.949h-224.96v227.541h224.939v-227.541zM385.152 787.413h-154.325v-153.195h154.325v153.195zM399.573 380.053h357.76v-50.667h-357.76v50.667zM399.573 300.053h357.76v-50.667h-357.76v50.667zM45.611 164.331c-0.427-4.181-0.043-8 2.133-12.544l92.821-171.733c0 0 5.653-7.104 15.125-10.027 12.181-3.776 29.909-1.963 41.92 16.64 20.587 31.915 169.088 400.832 169.088 400.832s21.995 74.645-52.523 74.496c-33.387-0.064-54.144-70.229-54.144-70.229l-96-253.867-40.896 63.765c0 0-4.437 6.656-11.776 8.427-20.352 4.928-61.781-5.419-65.749-45.76z" />
<glyph unicode="&#xe960;" glyph-name="view" d="M986.773 447.381c5.035 9.259 5.035 20.459 0 29.717-92.096 169.536-271.723 284.693-478.272 284.693s-386.176-115.157-478.272-284.715c-5.035-9.259-5.035-20.459 0-29.717 92.117-169.579 271.723-284.715 478.272-284.715s386.176 115.136 478.272 284.736zM508.501 232.448c-126.912 0-229.76 102.848-229.76 229.781s102.848 229.781 229.76 229.781 229.76-102.848 229.76-229.781-102.848-229.781-229.76-229.781zM508.501 579.307c-9.685 0-19.072-1.152-28.053-3.371 9.237-10.645 14.784-24.512 14.784-39.659 0-33.579-27.179-60.8-60.757-60.8-15.168 0-29.035 5.589-39.68 14.784-2.219-8.981-3.392-18.389-3.392-28.032 0-64.661 52.437-117.099 117.099-117.099s117.099 52.437 117.099 117.099-52.437 117.077-117.099 117.077z" />
<glyph unicode="&#xe961;" glyph-name="walking" d="M640 789.333c0-47.128-38.205-85.333-85.333-85.333s-85.333 38.205-85.333 85.333c0 47.128 38.205 85.333 85.333 85.333s85.333-38.205 85.333-85.333zM452.267 614.4l-42.667-196.267c-8.533-29.867 4.267-59.733 21.333-81.067l145.067-157.867-42.667 200.533 38.4 174.933-29.867 59.733h-89.6zM622.933 21.333h89.6c-17.067 42.667-59.733 149.333-76.8 200.533l-123.733 179.2-68.267-51.2 115.2-153.6 64-174.933zM324.267 21.333l98.133 110.933 34.133 102.4-64 72.533-38.4-123.733-128-162.133z" />
<glyph unicode="&#xe962;" glyph-name="warning-message" d="M1018.327 61.436l-470.384 814.762c-16.090 27.793-56.003 27.793-72.094 0l-470.175-814.762c-16.090-27.793 3.97-62.481 35.942-62.481h940.769c31.972 0 52.033 34.688 35.942 62.481zM562.152 109.708h-102.185v102.185h102.185v-102.185zM564.033 274.792h-104.065v346.467h104.065v-346.467z" />
<glyph unicode="&#xe963;" glyph-name="youtube" d="M1024 653.278c0 84.571-68.506 153.122-153.031 153.122h-717.938c-84.526 0-153.031-68.551-153.031-153.122v-410.556c0-84.571 68.506-153.122 153.031-153.122h717.938c84.526 0 153.031 68.551 153.031 153.122v410.556zM409.6 274.773v385.65l292.432-192.819-292.432-192.831z" />
<glyph unicode="&#xe964;" glyph-name="data-edit" d="M449.899 771.84l319.275-192.512-240.363-416.64-331.413 190.869 252.501 418.283zM833.515 812.288l-193.6 112.555c-41.472 28.011-74.645 22.165-103.829-18.581l-23.467-41.877 319.189-190.315 22.741 35.136c32.875 53.312 11.115 81.365-21.035 103.083zM167.808-30.549c-0.832-16.981 9.877-23.424 25.941-16.491l284.053 122.005-325.931 196.544 15.936-302.059z" />
<glyph unicode="&#xe965;" glyph-name="message-information2" d="M512 960c-282.774 0-512-229.234-512-512 0-282.782 229.226-512 512-512s512 229.218 512 512c0 282.766-229.226 512-512 512zM512 704c35.348 0 64-28.656 64-64 0-35.36-28.652-64-64-64s-64 28.64-64 64c0 35.344 28.652 64 64 64zM608 192h-192c-17.672 0-32 14.312-32 32 0 17.672 14.328 32 32 32h32v192h-32c-17.672 0-32 14.312-32 32 0 17.672 14.328 32 32 32h128c17.672 0 32-14.328 32-32v-224h32c17.672 0 32-14.328 32-32 0-17.688-14.328-32-32-32z" />
</font>
</defs>
</svg>
